<svg width="120" height="30" viewBox="0 0 120 30" fill="none" xmlns="http://www.w3.org/2000/svg">
<rect width="120" height="30" fill="#F5F5F5"/>
<g clip-path="url(#clip0_0_1)">
<rect width="120" height="30" fill="white"/>
<rect x="25" width="10" height="30" rx="5" transform="rotate(30 25 0)" fill="url(#paint0_linear_0_1)"/>
<rect x="37" width="10" height="30" rx="5" fill="url(#paint1_linear_0_1)"/>
<rect x="87" width="10" height="30" rx="5" fill="url(#paint2_linear_0_1)"/>
<rect y="5" width="10" height="30" rx="5" transform="rotate(-30 0 5)" fill="url(#paint3_linear_0_1)"/>
<rect x="50" y="5" width="10" height="30" rx="5" transform="rotate(-30 50 5)" fill="url(#paint4_linear_0_1)"/>
<rect x="75" width="10" height="30" rx="5" transform="rotate(30 75 0)" fill="url(#paint5_linear_0_1)"/>
<path d="M105 26C105 28.2091 106.822 30.052 108.953 29.4698C111.447 28.7883 113.746 27.467 115.607 25.6065C118.42 22.7936 120 18.9782 120 15C120 11.0218 118.42 7.20645 115.607 4.3934C113.746 2.53296 111.447 1.21169 108.953 0.530178C106.822 -0.0520454 105 1.79086 105 4L105 15L105 26Z" fill="url(#paint6_linear_0_1)"/>
</g>
<defs>
<linearGradient id="paint0_linear_0_1" x1="35" y1="7.42987" x2="38.2068" y2="18.8673" gradientUnits="userSpaceOnUse">
<stop stop-color="#207FB4"/>
<stop offset="1" stop-color="#1C91AC"/>
</linearGradient>
<linearGradient id="paint1_linear_0_1" x1="47" y1="18.0177" x2="37" y2="11.9823" gradientUnits="userSpaceOnUse">
<stop stop-color="#8078CB"/>
<stop offset="1" stop-color="#207FB4"/>
</linearGradient>
<linearGradient id="paint2_linear_0_1" x1="97" y1="15" x2="87" y2="15" gradientUnits="userSpaceOnUse">
<stop stop-color="#D57382"/>
<stop offset="1" stop-color="#D881C8"/>
</linearGradient>
<linearGradient id="paint3_linear_0_1" x1="-1.37491e-07" y1="23.1559" x2="7.40929" y2="25.3996" gradientUnits="userSpaceOnUse">
<stop stop-color="#2AA4A5"/>
<stop offset="1" stop-color="#1C91AC"/>
</linearGradient>
<linearGradient id="paint4_linear_0_1" x1="50" y1="19.5237" x2="53.8143" y2="24.8807" gradientUnits="userSpaceOnUse">
<stop stop-color="#8078CB"/>
<stop offset="1" stop-color="#9676D0"/>
</linearGradient>
<linearGradient id="paint5_linear_0_1" x1="85" y1="7.77172" x2="75" y2="22.2283" gradientUnits="userSpaceOnUse">
<stop stop-color="#D881C8"/>
<stop offset="1" stop-color="#9676D0"/>
</linearGradient>
<linearGradient id="paint6_linear_0_1" x1="120" y1="15" x2="105" y2="15" gradientUnits="userSpaceOnUse">
<stop stop-color="#E06A26"/>
<stop offset="0.5" stop-color="#DC7068"/>
<stop offset="1" stop-color="#D57382"/>
</linearGradient>
<clipPath id="clip0_0_1">
<rect width="120" height="30" fill="white"/>
</clipPath>
</defs>
</svg>
